<mxfile host="Electron" agent="Mozilla/5.0 (Windows NT 10.0; Win64; x64) AppleWebKit/537.36 (KHTML, like Gecko) draw.io/24.7.17 Chrome/128.0.6613.36 Electron/32.0.1 Safari/537.36" version="24.7.17" pages="10">
  <diagram name="Question2" id="AnE8G8eUU-XdKenfzzXU">
    <mxGraphModel dx="1050" dy="621" grid="1" gridSize="10" guides="1" tooltips="1" connect="1" arrows="1" fold="1" page="1" pageScale="1" pageWidth="850" pageHeight="1100" math="0" shadow="0">
      <root>
        <mxCell id="0" />
        <mxCell id="1" parent="0" />
        <mxCell id="1ZUeBbmwGA0a7XSacBO6-16" style="edgeStyle=orthogonalEdgeStyle;rounded=0;orthogonalLoop=1;jettySize=auto;html=1;exitX=0.5;exitY=1;exitDx=0;exitDy=0;entryX=0.5;entryY=0;entryDx=0;entryDy=0;" parent="1" source="1ZUeBbmwGA0a7XSacBO6-1" target="1ZUeBbmwGA0a7XSacBO6-2" edge="1">
          <mxGeometry relative="1" as="geometry" />
        </mxCell>
        <mxCell id="1ZUeBbmwGA0a7XSacBO6-1" value="Start" style="ellipse;whiteSpace=wrap;html=1;" parent="1" vertex="1">
          <mxGeometry x="340" y="10" width="120" height="80" as="geometry" />
        </mxCell>
        <mxCell id="1ZUeBbmwGA0a7XSacBO6-17" style="edgeStyle=orthogonalEdgeStyle;rounded=0;orthogonalLoop=1;jettySize=auto;html=1;exitX=0.5;exitY=1;exitDx=0;exitDy=0;entryX=0.5;entryY=0;entryDx=0;entryDy=0;" parent="1" source="1ZUeBbmwGA0a7XSacBO6-2" target="1ZUeBbmwGA0a7XSacBO6-3" edge="1">
          <mxGeometry relative="1" as="geometry" />
        </mxCell>
        <mxCell id="1ZUeBbmwGA0a7XSacBO6-2" value="Enter temp1" style="shape=parallelogram;perimeter=parallelogramPerimeter;whiteSpace=wrap;html=1;fixedSize=1;" parent="1" vertex="1">
          <mxGeometry x="340" y="110" width="120" height="60" as="geometry" />
        </mxCell>
        <mxCell id="1ZUeBbmwGA0a7XSacBO6-18" style="edgeStyle=orthogonalEdgeStyle;rounded=0;orthogonalLoop=1;jettySize=auto;html=1;exitX=0.5;exitY=1;exitDx=0;exitDy=0;entryX=0.5;entryY=0;entryDx=0;entryDy=0;" parent="1" source="1ZUeBbmwGA0a7XSacBO6-3" target="1ZUeBbmwGA0a7XSacBO6-4" edge="1">
          <mxGeometry relative="1" as="geometry" />
        </mxCell>
        <mxCell id="1ZUeBbmwGA0a7XSacBO6-3" value="Input temp1" style="shape=parallelogram;perimeter=parallelogramPerimeter;whiteSpace=wrap;html=1;fixedSize=1;" parent="1" vertex="1">
          <mxGeometry x="340" y="200" width="120" height="60" as="geometry" />
        </mxCell>
        <mxCell id="1ZUeBbmwGA0a7XSacBO6-19" style="edgeStyle=orthogonalEdgeStyle;rounded=0;orthogonalLoop=1;jettySize=auto;html=1;exitX=0.5;exitY=1;exitDx=0;exitDy=0;entryX=0.5;entryY=0;entryDx=0;entryDy=0;" parent="1" source="1ZUeBbmwGA0a7XSacBO6-4" target="1ZUeBbmwGA0a7XSacBO6-6" edge="1">
          <mxGeometry relative="1" as="geometry" />
        </mxCell>
        <mxCell id="1ZUeBbmwGA0a7XSacBO6-4" value="Enter temp2" style="shape=parallelogram;perimeter=parallelogramPerimeter;whiteSpace=wrap;html=1;fixedSize=1;" parent="1" vertex="1">
          <mxGeometry x="340" y="290" width="120" height="60" as="geometry" />
        </mxCell>
        <mxCell id="1ZUeBbmwGA0a7XSacBO6-20" style="edgeStyle=orthogonalEdgeStyle;rounded=0;orthogonalLoop=1;jettySize=auto;html=1;exitX=0.5;exitY=1;exitDx=0;exitDy=0;entryX=0.5;entryY=0;entryDx=0;entryDy=0;" parent="1" source="1ZUeBbmwGA0a7XSacBO6-6" target="1ZUeBbmwGA0a7XSacBO6-7" edge="1">
          <mxGeometry relative="1" as="geometry" />
        </mxCell>
        <mxCell id="1ZUeBbmwGA0a7XSacBO6-6" value="Input temp2" style="shape=parallelogram;perimeter=parallelogramPerimeter;whiteSpace=wrap;html=1;fixedSize=1;" parent="1" vertex="1">
          <mxGeometry x="340" y="380" width="120" height="60" as="geometry" />
        </mxCell>
        <mxCell id="1ZUeBbmwGA0a7XSacBO6-21" style="edgeStyle=orthogonalEdgeStyle;rounded=0;orthogonalLoop=1;jettySize=auto;html=1;exitX=0.5;exitY=1;exitDx=0;exitDy=0;entryX=0.5;entryY=0;entryDx=0;entryDy=0;" parent="1" source="1ZUeBbmwGA0a7XSacBO6-7" target="1ZUeBbmwGA0a7XSacBO6-8" edge="1">
          <mxGeometry relative="1" as="geometry" />
        </mxCell>
        <mxCell id="1ZUeBbmwGA0a7XSacBO6-22" style="edgeStyle=orthogonalEdgeStyle;rounded=0;orthogonalLoop=1;jettySize=auto;html=1;exitX=0.5;exitY=1;exitDx=0;exitDy=0;entryX=0.5;entryY=0;entryDx=0;entryDy=0;" parent="1" source="1ZUeBbmwGA0a7XSacBO6-7" target="1ZUeBbmwGA0a7XSacBO6-8" edge="1">
          <mxGeometry relative="1" as="geometry" />
        </mxCell>
        <mxCell id="1ZUeBbmwGA0a7XSacBO6-7" value="Enter temp3" style="shape=parallelogram;perimeter=parallelogramPerimeter;whiteSpace=wrap;html=1;fixedSize=1;" parent="1" vertex="1">
          <mxGeometry x="340" y="460" width="120" height="60" as="geometry" />
        </mxCell>
        <mxCell id="1ZUeBbmwGA0a7XSacBO6-23" style="edgeStyle=orthogonalEdgeStyle;rounded=0;orthogonalLoop=1;jettySize=auto;html=1;exitX=0.5;exitY=1;exitDx=0;exitDy=0;entryX=0.5;entryY=0;entryDx=0;entryDy=0;" parent="1" source="1ZUeBbmwGA0a7XSacBO6-8" target="1ZUeBbmwGA0a7XSacBO6-9" edge="1">
          <mxGeometry relative="1" as="geometry" />
        </mxCell>
        <mxCell id="1ZUeBbmwGA0a7XSacBO6-8" value="Input temp3&lt;span style=&quot;color: rgba(0, 0, 0, 0); font-family: monospace; font-size: 0px; text-align: start; text-wrap: nowrap;&quot;&gt;%3CmxGraphModel%3E%3Croot%3E%3CmxCell%20id%3D%220%22%2F%3E%3CmxCell%20id%3D%221%22%20parent%3D%220%22%2F%3E%3CmxCell%20id%3D%222%22%20value%3D%22Enter%20temp2%22%20style%3D%22shape%3Dparallelogram%3Bperimeter%3DparallelogramPerimeter%3BwhiteSpace%3Dwrap%3Bhtml%3D1%3BfixedSize%3D1%3B%22%20vertex%3D%221%22%20parent%3D%221%22%3E%3CmxGeometry%20x%3D%22360%22%20y%3D%22300%22%20width%3D%22120%22%20height%3D%2260%22%20as%3D%22geometry%22%2F%3E%3C%2FmxCell%3E%3C%2Froot%3E%3C%2FmxGraphModel%3E&lt;/span&gt;" style="shape=parallelogram;perimeter=parallelogramPerimeter;whiteSpace=wrap;html=1;fixedSize=1;" parent="1" vertex="1">
          <mxGeometry x="340" y="540" width="120" height="60" as="geometry" />
        </mxCell>
        <mxCell id="1ZUeBbmwGA0a7XSacBO6-24" style="edgeStyle=orthogonalEdgeStyle;rounded=0;orthogonalLoop=1;jettySize=auto;html=1;exitX=0.5;exitY=1;exitDx=0;exitDy=0;" parent="1" source="1ZUeBbmwGA0a7XSacBO6-9" target="1ZUeBbmwGA0a7XSacBO6-10" edge="1">
          <mxGeometry relative="1" as="geometry" />
        </mxCell>
        <mxCell id="1ZUeBbmwGA0a7XSacBO6-9" value="Enter temp4&lt;span style=&quot;color: rgba(0, 0, 0, 0); font-family: monospace; font-size: 0px; text-align: start; text-wrap: nowrap;&quot;&gt;%3CmxGraphModel%3E%3Croot%3E%3CmxCell%20id%3D%220%22%2F%3E%3CmxCell%20id%3D%221%22%20parent%3D%220%22%2F%3E%3CmxCell%20id%3D%222%22%20value%3D%22Enter%20temp2%22%20style%3D%22shape%3Dparallelogram%3Bperimeter%3DparallelogramPerimeter%3BwhiteSpace%3Dwrap%3Bhtml%3D1%3BfixedSize%3D1%3B%22%20vertex%3D%221%22%20parent%3D%221%22%3E%3CmxGeometry%20x%3D%22360%22%20y%3D%22300%22%20width%3D%22120%22%20height%3D%2260%22%20as%3D%22geometry%22%2F%3E%3C%2FmxCell%3E%3C%2Froot%3E%3C%2FmxGraphModel%3E&lt;/span&gt;" style="shape=parallelogram;perimeter=parallelogramPerimeter;whiteSpace=wrap;html=1;fixedSize=1;" parent="1" vertex="1">
          <mxGeometry x="340" y="630" width="120" height="60" as="geometry" />
        </mxCell>
        <mxCell id="1ZUeBbmwGA0a7XSacBO6-25" style="edgeStyle=orthogonalEdgeStyle;rounded=0;orthogonalLoop=1;jettySize=auto;html=1;exitX=0.5;exitY=1;exitDx=0;exitDy=0;" parent="1" source="1ZUeBbmwGA0a7XSacBO6-10" target="1ZUeBbmwGA0a7XSacBO6-11" edge="1">
          <mxGeometry relative="1" as="geometry" />
        </mxCell>
        <mxCell id="1ZUeBbmwGA0a7XSacBO6-10" value="Input temp4" style="shape=parallelogram;perimeter=parallelogramPerimeter;whiteSpace=wrap;html=1;fixedSize=1;" parent="1" vertex="1">
          <mxGeometry x="340" y="710" width="120" height="60" as="geometry" />
        </mxCell>
        <mxCell id="1ZUeBbmwGA0a7XSacBO6-26" style="edgeStyle=orthogonalEdgeStyle;rounded=0;orthogonalLoop=1;jettySize=auto;html=1;exitX=0.5;exitY=1;exitDx=0;exitDy=0;entryX=0.5;entryY=0;entryDx=0;entryDy=0;" parent="1" source="1ZUeBbmwGA0a7XSacBO6-11" target="1ZUeBbmwGA0a7XSacBO6-12" edge="1">
          <mxGeometry relative="1" as="geometry" />
        </mxCell>
        <mxCell id="1ZUeBbmwGA0a7XSacBO6-11" value="Enter temp5" style="shape=parallelogram;perimeter=parallelogramPerimeter;whiteSpace=wrap;html=1;fixedSize=1;" parent="1" vertex="1">
          <mxGeometry x="330" y="790" width="120" height="60" as="geometry" />
        </mxCell>
        <mxCell id="1ZUeBbmwGA0a7XSacBO6-27" style="edgeStyle=orthogonalEdgeStyle;rounded=0;orthogonalLoop=1;jettySize=auto;html=1;exitX=0.5;exitY=1;exitDx=0;exitDy=0;entryX=0.5;entryY=0;entryDx=0;entryDy=0;" parent="1" source="1ZUeBbmwGA0a7XSacBO6-12" target="1ZUeBbmwGA0a7XSacBO6-13" edge="1">
          <mxGeometry relative="1" as="geometry" />
        </mxCell>
        <mxCell id="1ZUeBbmwGA0a7XSacBO6-12" value="Input temp5" style="shape=parallelogram;perimeter=parallelogramPerimeter;whiteSpace=wrap;html=1;fixedSize=1;" parent="1" vertex="1">
          <mxGeometry x="320" y="870" width="120" height="60" as="geometry" />
        </mxCell>
        <mxCell id="1ZUeBbmwGA0a7XSacBO6-28" style="edgeStyle=orthogonalEdgeStyle;rounded=0;orthogonalLoop=1;jettySize=auto;html=1;exitX=0.5;exitY=1;exitDx=0;exitDy=0;entryX=0.5;entryY=0;entryDx=0;entryDy=0;" parent="1" source="1ZUeBbmwGA0a7XSacBO6-13" target="1ZUeBbmwGA0a7XSacBO6-14" edge="1">
          <mxGeometry relative="1" as="geometry" />
        </mxCell>
        <mxCell id="1ZUeBbmwGA0a7XSacBO6-13" value="avgTemp = (temp1 + temp2 + temp3 + temp4 + temp5) / 5" style="rounded=0;whiteSpace=wrap;html=1;" parent="1" vertex="1">
          <mxGeometry x="320" y="960" width="120" height="60" as="geometry" />
        </mxCell>
        <mxCell id="1ZUeBbmwGA0a7XSacBO6-29" style="edgeStyle=orthogonalEdgeStyle;rounded=0;orthogonalLoop=1;jettySize=auto;html=1;exitX=0.5;exitY=1;exitDx=0;exitDy=0;entryX=0.5;entryY=0;entryDx=0;entryDy=0;" parent="1" source="1ZUeBbmwGA0a7XSacBO6-14" target="1ZUeBbmwGA0a7XSacBO6-15" edge="1">
          <mxGeometry relative="1" as="geometry" />
        </mxCell>
        <mxCell id="1ZUeBbmwGA0a7XSacBO6-14" value="Print avgTemp" style="shape=parallelogram;perimeter=parallelogramPerimeter;whiteSpace=wrap;html=1;fixedSize=1;" parent="1" vertex="1">
          <mxGeometry x="320" y="1040" width="120" height="60" as="geometry" />
        </mxCell>
        <mxCell id="1ZUeBbmwGA0a7XSacBO6-15" value="END" style="ellipse;whiteSpace=wrap;html=1;" parent="1" vertex="1">
          <mxGeometry x="320" y="1120" width="120" height="80" as="geometry" />
        </mxCell>
        <mxCell id="rZqnfLWN_-1psG4paxYd-1" value="&lt;h1 style=&quot;margin-top: 0px;&quot;&gt;Specifications&lt;/h1&gt;&lt;div&gt;Input&lt;/div&gt;&lt;div&gt;temp1&lt;/div&gt;&lt;div&gt;temp2&lt;/div&gt;&lt;div&gt;temp3&lt;/div&gt;&lt;div&gt;temp4&lt;/div&gt;&lt;div&gt;temp5&lt;/div&gt;&lt;div&gt;&lt;br&gt;&lt;/div&gt;&lt;div&gt;Output&lt;/div&gt;&lt;div&gt;avgTemp&lt;/div&gt;&lt;div&gt;&lt;br&gt;&lt;/div&gt;&lt;div&gt;&lt;br&gt;&lt;/div&gt;&lt;div&gt;Processing&lt;br&gt;avgTemp = (temp1 + temp2 + temp3 + temp4 + temp5) / 5&lt;/div&gt;" style="text;html=1;whiteSpace=wrap;overflow=hidden;rounded=0;" vertex="1" parent="1">
          <mxGeometry width="180" height="320" as="geometry" />
        </mxCell>
      </root>
    </mxGraphModel>
  </diagram>
  <diagram id="xqRl28BP_VLj-9xdfFwU" name="Question3">
    <mxGraphModel dx="1050" dy="621" grid="1" gridSize="10" guides="1" tooltips="1" connect="1" arrows="1" fold="1" page="1" pageScale="1" pageWidth="850" pageHeight="1100" math="0" shadow="0">
      <root>
        <mxCell id="0" />
        <mxCell id="1" parent="0" />
        <mxCell id="GYdJrJmw5ONlGdl-YScG-1" value="&lt;h1 style=&quot;margin-top: 0px;&quot;&gt;Specifications&lt;/h1&gt;&lt;div&gt;&lt;br&gt;&lt;/div&gt;&lt;div&gt;Input&lt;/div&gt;&lt;div&gt;length&lt;/div&gt;&lt;div&gt;&lt;br&gt;&lt;/div&gt;&lt;div&gt;Output&lt;/div&gt;&lt;div&gt;perimeter&lt;/div&gt;&lt;div&gt;&lt;br&gt;&lt;/div&gt;&lt;div&gt;Processing&lt;br&gt;perimeter = length * 4&lt;/div&gt;" style="text;html=1;whiteSpace=wrap;overflow=hidden;rounded=0;" vertex="1" parent="1">
          <mxGeometry width="180" height="440" as="geometry" />
        </mxCell>
        <mxCell id="GYdJrJmw5ONlGdl-YScG-5" value="" style="edgeStyle=orthogonalEdgeStyle;rounded=0;orthogonalLoop=1;jettySize=auto;html=1;" edge="1" parent="1" source="GYdJrJmw5ONlGdl-YScG-2" target="GYdJrJmw5ONlGdl-YScG-3">
          <mxGeometry relative="1" as="geometry" />
        </mxCell>
        <mxCell id="GYdJrJmw5ONlGdl-YScG-2" value="Start" style="ellipse;whiteSpace=wrap;html=1;" vertex="1" parent="1">
          <mxGeometry x="365" y="20" width="120" height="80" as="geometry" />
        </mxCell>
        <mxCell id="GYdJrJmw5ONlGdl-YScG-6" value="" style="edgeStyle=orthogonalEdgeStyle;rounded=0;orthogonalLoop=1;jettySize=auto;html=1;" edge="1" parent="1" source="GYdJrJmw5ONlGdl-YScG-3" target="GYdJrJmw5ONlGdl-YScG-4">
          <mxGeometry relative="1" as="geometry" />
        </mxCell>
        <mxCell id="GYdJrJmw5ONlGdl-YScG-3" value="Enter length" style="shape=parallelogram;perimeter=parallelogramPerimeter;whiteSpace=wrap;html=1;fixedSize=1;" vertex="1" parent="1">
          <mxGeometry x="365" y="130" width="120" height="60" as="geometry" />
        </mxCell>
        <mxCell id="GYdJrJmw5ONlGdl-YScG-8" value="" style="edgeStyle=orthogonalEdgeStyle;rounded=0;orthogonalLoop=1;jettySize=auto;html=1;" edge="1" parent="1" source="GYdJrJmw5ONlGdl-YScG-4" target="GYdJrJmw5ONlGdl-YScG-7">
          <mxGeometry relative="1" as="geometry" />
        </mxCell>
        <mxCell id="GYdJrJmw5ONlGdl-YScG-4" value="Input length" style="shape=parallelogram;perimeter=parallelogramPerimeter;whiteSpace=wrap;html=1;fixedSize=1;" vertex="1" parent="1">
          <mxGeometry x="365" y="230" width="120" height="60" as="geometry" />
        </mxCell>
        <mxCell id="GYdJrJmw5ONlGdl-YScG-10" value="" style="edgeStyle=orthogonalEdgeStyle;rounded=0;orthogonalLoop=1;jettySize=auto;html=1;" edge="1" parent="1" source="GYdJrJmw5ONlGdl-YScG-7" target="GYdJrJmw5ONlGdl-YScG-9">
          <mxGeometry relative="1" as="geometry" />
        </mxCell>
        <mxCell id="GYdJrJmw5ONlGdl-YScG-7" value="perimeter = length * 4" style="whiteSpace=wrap;html=1;" vertex="1" parent="1">
          <mxGeometry x="365" y="370" width="120" height="60" as="geometry" />
        </mxCell>
        <mxCell id="GYdJrJmw5ONlGdl-YScG-12" value="" style="edgeStyle=orthogonalEdgeStyle;rounded=0;orthogonalLoop=1;jettySize=auto;html=1;" edge="1" parent="1" source="GYdJrJmw5ONlGdl-YScG-9" target="GYdJrJmw5ONlGdl-YScG-11">
          <mxGeometry relative="1" as="geometry" />
        </mxCell>
        <mxCell id="GYdJrJmw5ONlGdl-YScG-9" value="print perimeter" style="shape=parallelogram;perimeter=parallelogramPerimeter;whiteSpace=wrap;html=1;fixedSize=1;" vertex="1" parent="1">
          <mxGeometry x="365" y="510" width="120" height="60" as="geometry" />
        </mxCell>
        <mxCell id="GYdJrJmw5ONlGdl-YScG-11" value="Ened" style="ellipse;whiteSpace=wrap;html=1;" vertex="1" parent="1">
          <mxGeometry x="385" y="640" width="80" height="80" as="geometry" />
        </mxCell>
      </root>
    </mxGraphModel>
  </diagram>
  <diagram id="A_J3nL0SBQJneslbPo52" name="Question4">
    <mxGraphModel dx="1050" dy="621" grid="1" gridSize="10" guides="1" tooltips="1" connect="1" arrows="1" fold="1" page="1" pageScale="1" pageWidth="850" pageHeight="1100" math="0" shadow="0">
      <root>
        <mxCell id="0" />
        <mxCell id="1" parent="0" />
        <mxCell id="J_j_11aGCkCb3VDNEcLE-1" value="&lt;h1 style=&quot;margin-top: 0px;&quot;&gt;Specifications&lt;/h1&gt;&lt;div&gt;&lt;br&gt;&lt;/div&gt;&lt;div&gt;Input&lt;/div&gt;&lt;div&gt;length&lt;/div&gt;&lt;div&gt;width&lt;/div&gt;&lt;div&gt;&lt;br&gt;&lt;/div&gt;&lt;div&gt;Output&lt;/div&gt;&lt;div&gt;area&lt;/div&gt;&lt;div&gt;&lt;br&gt;&lt;/div&gt;&lt;div&gt;Processing&lt;/div&gt;&lt;div&gt;area = length * width&lt;/div&gt;" style="text;html=1;whiteSpace=wrap;overflow=hidden;rounded=0;" vertex="1" parent="1">
          <mxGeometry width="180" height="270" as="geometry" />
        </mxCell>
        <mxCell id="J_j_11aGCkCb3VDNEcLE-5" value="" style="edgeStyle=orthogonalEdgeStyle;rounded=0;orthogonalLoop=1;jettySize=auto;html=1;" edge="1" parent="1" source="J_j_11aGCkCb3VDNEcLE-3" target="J_j_11aGCkCb3VDNEcLE-4">
          <mxGeometry relative="1" as="geometry" />
        </mxCell>
        <mxCell id="J_j_11aGCkCb3VDNEcLE-3" value="Start" style="ellipse;whiteSpace=wrap;html=1;" vertex="1" parent="1">
          <mxGeometry x="365" width="120" height="80" as="geometry" />
        </mxCell>
        <mxCell id="J_j_11aGCkCb3VDNEcLE-7" value="" style="edgeStyle=orthogonalEdgeStyle;rounded=0;orthogonalLoop=1;jettySize=auto;html=1;" edge="1" parent="1" source="J_j_11aGCkCb3VDNEcLE-4" target="J_j_11aGCkCb3VDNEcLE-6">
          <mxGeometry relative="1" as="geometry" />
        </mxCell>
        <mxCell id="J_j_11aGCkCb3VDNEcLE-4" value="Enter length" style="shape=parallelogram;perimeter=parallelogramPerimeter;whiteSpace=wrap;html=1;fixedSize=1;" vertex="1" parent="1">
          <mxGeometry x="365" y="170" width="120" height="60" as="geometry" />
        </mxCell>
        <mxCell id="J_j_11aGCkCb3VDNEcLE-9" value="" style="edgeStyle=orthogonalEdgeStyle;rounded=0;orthogonalLoop=1;jettySize=auto;html=1;" edge="1" parent="1" source="J_j_11aGCkCb3VDNEcLE-6" target="J_j_11aGCkCb3VDNEcLE-8">
          <mxGeometry relative="1" as="geometry" />
        </mxCell>
        <mxCell id="J_j_11aGCkCb3VDNEcLE-6" value="Input length" style="shape=parallelogram;perimeter=parallelogramPerimeter;whiteSpace=wrap;html=1;fixedSize=1;" vertex="1" parent="1">
          <mxGeometry x="365" y="310" width="120" height="60" as="geometry" />
        </mxCell>
        <mxCell id="J_j_11aGCkCb3VDNEcLE-11" value="" style="edgeStyle=orthogonalEdgeStyle;rounded=0;orthogonalLoop=1;jettySize=auto;html=1;" edge="1" parent="1" source="J_j_11aGCkCb3VDNEcLE-8" target="J_j_11aGCkCb3VDNEcLE-10">
          <mxGeometry relative="1" as="geometry" />
        </mxCell>
        <mxCell id="J_j_11aGCkCb3VDNEcLE-8" value="Enter width" style="shape=parallelogram;perimeter=parallelogramPerimeter;whiteSpace=wrap;html=1;fixedSize=1;" vertex="1" parent="1">
          <mxGeometry x="365" y="450" width="120" height="60" as="geometry" />
        </mxCell>
        <mxCell id="J_j_11aGCkCb3VDNEcLE-13" value="" style="edgeStyle=orthogonalEdgeStyle;rounded=0;orthogonalLoop=1;jettySize=auto;html=1;" edge="1" parent="1" source="J_j_11aGCkCb3VDNEcLE-10">
          <mxGeometry relative="1" as="geometry">
            <mxPoint x="425" y="730" as="targetPoint" />
          </mxGeometry>
        </mxCell>
        <mxCell id="J_j_11aGCkCb3VDNEcLE-10" value="Input width" style="shape=parallelogram;perimeter=parallelogramPerimeter;whiteSpace=wrap;html=1;fixedSize=1;" vertex="1" parent="1">
          <mxGeometry x="365" y="590" width="120" height="60" as="geometry" />
        </mxCell>
        <mxCell id="J_j_11aGCkCb3VDNEcLE-18" value="" style="edgeStyle=orthogonalEdgeStyle;rounded=0;orthogonalLoop=1;jettySize=auto;html=1;" edge="1" parent="1" source="J_j_11aGCkCb3VDNEcLE-16" target="J_j_11aGCkCb3VDNEcLE-17">
          <mxGeometry relative="1" as="geometry" />
        </mxCell>
        <mxCell id="J_j_11aGCkCb3VDNEcLE-20" style="edgeStyle=orthogonalEdgeStyle;rounded=0;orthogonalLoop=1;jettySize=auto;html=1;exitX=0.5;exitY=1;exitDx=0;exitDy=0;entryX=0.5;entryY=0;entryDx=0;entryDy=0;" edge="1" parent="1" source="J_j_11aGCkCb3VDNEcLE-16" target="J_j_11aGCkCb3VDNEcLE-19">
          <mxGeometry relative="1" as="geometry" />
        </mxCell>
        <mxCell id="J_j_11aGCkCb3VDNEcLE-16" value="area = length * width" style="rounded=0;whiteSpace=wrap;html=1;" vertex="1" parent="1">
          <mxGeometry x="365" y="730" width="120" height="60" as="geometry" />
        </mxCell>
        <mxCell id="J_j_11aGCkCb3VDNEcLE-17" value="End" style="ellipse;whiteSpace=wrap;html=1;" vertex="1" parent="1">
          <mxGeometry x="365" y="950" width="120" height="80" as="geometry" />
        </mxCell>
        <mxCell id="J_j_11aGCkCb3VDNEcLE-21" style="edgeStyle=orthogonalEdgeStyle;rounded=0;orthogonalLoop=1;jettySize=auto;html=1;exitX=0.5;exitY=1;exitDx=0;exitDy=0;entryX=0.5;entryY=0;entryDx=0;entryDy=0;" edge="1" parent="1" source="J_j_11aGCkCb3VDNEcLE-19" target="J_j_11aGCkCb3VDNEcLE-17">
          <mxGeometry relative="1" as="geometry" />
        </mxCell>
        <mxCell id="J_j_11aGCkCb3VDNEcLE-19" value="Print area" style="rounded=0;whiteSpace=wrap;html=1;" vertex="1" parent="1">
          <mxGeometry x="365" y="840" width="120" height="60" as="geometry" />
        </mxCell>
      </root>
    </mxGraphModel>
  </diagram>
  <diagram id="C8DNkLA0CwUfF9w2V8lJ" name="Question5">
    <mxGraphModel dx="1050" dy="621" grid="1" gridSize="10" guides="1" tooltips="1" connect="1" arrows="1" fold="1" page="1" pageScale="1" pageWidth="850" pageHeight="1100" math="0" shadow="0">
      <root>
        <mxCell id="0" />
        <mxCell id="1" parent="0" />
        <mxCell id="Rb9PKgh6zNUinCH25YNq-1" value="&lt;h1 style=&quot;margin-top: 0px;&quot;&gt;Specifications&lt;/h1&gt;&lt;div&gt;&lt;br&gt;&lt;/div&gt;&lt;div&gt;Inputs&lt;br&gt;hours&lt;/div&gt;&lt;div&gt;&lt;br&gt;&lt;/div&gt;&lt;div&gt;Output&lt;/div&gt;&lt;div&gt;calories&lt;/div&gt;&lt;div&gt;&lt;br&gt;&lt;/div&gt;&lt;div&gt;Processing&lt;/div&gt;&lt;div&gt;calories = hours * 350&lt;/div&gt;" style="text;html=1;whiteSpace=wrap;overflow=hidden;rounded=0;" vertex="1" parent="1">
          <mxGeometry width="180" height="340" as="geometry" />
        </mxCell>
        <mxCell id="Rb9PKgh6zNUinCH25YNq-4" value="" style="edgeStyle=orthogonalEdgeStyle;rounded=0;orthogonalLoop=1;jettySize=auto;html=1;" edge="1" parent="1" source="Rb9PKgh6zNUinCH25YNq-2" target="Rb9PKgh6zNUinCH25YNq-3">
          <mxGeometry relative="1" as="geometry" />
        </mxCell>
        <mxCell id="Rb9PKgh6zNUinCH25YNq-2" value="Start" style="ellipse;whiteSpace=wrap;html=1;" vertex="1" parent="1">
          <mxGeometry x="365" width="120" height="80" as="geometry" />
        </mxCell>
        <mxCell id="Rb9PKgh6zNUinCH25YNq-6" value="" style="edgeStyle=orthogonalEdgeStyle;rounded=0;orthogonalLoop=1;jettySize=auto;html=1;" edge="1" parent="1" source="Rb9PKgh6zNUinCH25YNq-3" target="Rb9PKgh6zNUinCH25YNq-5">
          <mxGeometry relative="1" as="geometry" />
        </mxCell>
        <mxCell id="Rb9PKgh6zNUinCH25YNq-3" value="Enter hours" style="shape=parallelogram;perimeter=parallelogramPerimeter;whiteSpace=wrap;html=1;fixedSize=1;" vertex="1" parent="1">
          <mxGeometry x="365" y="170" width="120" height="60" as="geometry" />
        </mxCell>
        <mxCell id="Rb9PKgh6zNUinCH25YNq-8" value="" style="edgeStyle=orthogonalEdgeStyle;rounded=0;orthogonalLoop=1;jettySize=auto;html=1;" edge="1" parent="1" source="Rb9PKgh6zNUinCH25YNq-5" target="Rb9PKgh6zNUinCH25YNq-7">
          <mxGeometry relative="1" as="geometry" />
        </mxCell>
        <mxCell id="Rb9PKgh6zNUinCH25YNq-5" value="Input hours" style="shape=parallelogram;perimeter=parallelogramPerimeter;whiteSpace=wrap;html=1;fixedSize=1;" vertex="1" parent="1">
          <mxGeometry x="365" y="310" width="120" height="60" as="geometry" />
        </mxCell>
        <mxCell id="Rb9PKgh6zNUinCH25YNq-10" value="" style="edgeStyle=orthogonalEdgeStyle;rounded=0;orthogonalLoop=1;jettySize=auto;html=1;" edge="1" parent="1" source="Rb9PKgh6zNUinCH25YNq-7" target="Rb9PKgh6zNUinCH25YNq-9">
          <mxGeometry relative="1" as="geometry" />
        </mxCell>
        <mxCell id="Rb9PKgh6zNUinCH25YNq-7" value="calories = hours * 350" style="whiteSpace=wrap;html=1;" vertex="1" parent="1">
          <mxGeometry x="365" y="450" width="120" height="60" as="geometry" />
        </mxCell>
        <mxCell id="Rb9PKgh6zNUinCH25YNq-12" value="" style="edgeStyle=orthogonalEdgeStyle;rounded=0;orthogonalLoop=1;jettySize=auto;html=1;" edge="1" parent="1" source="Rb9PKgh6zNUinCH25YNq-9" target="Rb9PKgh6zNUinCH25YNq-11">
          <mxGeometry relative="1" as="geometry" />
        </mxCell>
        <mxCell id="Rb9PKgh6zNUinCH25YNq-9" value="Display calories" style="whiteSpace=wrap;html=1;" vertex="1" parent="1">
          <mxGeometry x="365" y="590" width="120" height="60" as="geometry" />
        </mxCell>
        <mxCell id="Rb9PKgh6zNUinCH25YNq-11" value="End" style="ellipse;whiteSpace=wrap;html=1;" vertex="1" parent="1">
          <mxGeometry x="365" y="720" width="120" height="80" as="geometry" />
        </mxCell>
      </root>
    </mxGraphModel>
  </diagram>
  <diagram id="pr7SQZbW709hq_XlOVPP" name="Question6">
    <mxGraphModel dx="1050" dy="621" grid="1" gridSize="10" guides="1" tooltips="1" connect="1" arrows="1" fold="1" page="1" pageScale="1" pageWidth="850" pageHeight="1100" math="0" shadow="0">
      <root>
        <mxCell id="0" />
        <mxCell id="1" parent="0" />
        <mxCell id="fPiB25N_Uv9yYRan34zL-1" value="&lt;h1 style=&quot;margin-top: 0px;&quot;&gt;Specifications&lt;/h1&gt;&lt;div&gt;&lt;br&gt;&lt;/div&gt;&lt;div&gt;Input&lt;br&gt;wage&lt;/div&gt;&lt;div&gt;hours&lt;/div&gt;&lt;div&gt;&lt;br&gt;&lt;/div&gt;&lt;div&gt;&lt;br&gt;&lt;/div&gt;&lt;div&gt;Output&lt;/div&gt;&lt;div&gt;pay&lt;/div&gt;&lt;div&gt;&lt;br&gt;&lt;/div&gt;&lt;div&gt;Processing&lt;/div&gt;&lt;div&gt;pay = wage * hours&lt;/div&gt;" style="text;html=1;whiteSpace=wrap;overflow=hidden;rounded=0;" vertex="1" parent="1">
          <mxGeometry width="180" height="420" as="geometry" />
        </mxCell>
        <mxCell id="fPiB25N_Uv9yYRan34zL-4" value="" style="edgeStyle=orthogonalEdgeStyle;rounded=0;orthogonalLoop=1;jettySize=auto;html=1;" edge="1" parent="1" source="fPiB25N_Uv9yYRan34zL-2" target="fPiB25N_Uv9yYRan34zL-3">
          <mxGeometry relative="1" as="geometry" />
        </mxCell>
        <mxCell id="fPiB25N_Uv9yYRan34zL-2" value="Start" style="ellipse;whiteSpace=wrap;html=1;" vertex="1" parent="1">
          <mxGeometry x="365" y="10" width="120" height="80" as="geometry" />
        </mxCell>
        <mxCell id="fPiB25N_Uv9yYRan34zL-6" value="" style="edgeStyle=orthogonalEdgeStyle;rounded=0;orthogonalLoop=1;jettySize=auto;html=1;" edge="1" parent="1" source="fPiB25N_Uv9yYRan34zL-3" target="fPiB25N_Uv9yYRan34zL-5">
          <mxGeometry relative="1" as="geometry" />
        </mxCell>
        <mxCell id="fPiB25N_Uv9yYRan34zL-3" value="Enter wage" style="shape=parallelogram;perimeter=parallelogramPerimeter;whiteSpace=wrap;html=1;fixedSize=1;" vertex="1" parent="1">
          <mxGeometry x="365" y="180" width="120" height="60" as="geometry" />
        </mxCell>
        <mxCell id="fPiB25N_Uv9yYRan34zL-8" value="" style="edgeStyle=orthogonalEdgeStyle;rounded=0;orthogonalLoop=1;jettySize=auto;html=1;" edge="1" parent="1" source="fPiB25N_Uv9yYRan34zL-5" target="fPiB25N_Uv9yYRan34zL-7">
          <mxGeometry relative="1" as="geometry" />
        </mxCell>
        <mxCell id="fPiB25N_Uv9yYRan34zL-5" value="Input wage" style="shape=parallelogram;perimeter=parallelogramPerimeter;whiteSpace=wrap;html=1;fixedSize=1;" vertex="1" parent="1">
          <mxGeometry x="365" y="320" width="120" height="60" as="geometry" />
        </mxCell>
        <mxCell id="fPiB25N_Uv9yYRan34zL-10" value="" style="edgeStyle=orthogonalEdgeStyle;rounded=0;orthogonalLoop=1;jettySize=auto;html=1;" edge="1" parent="1" source="fPiB25N_Uv9yYRan34zL-7" target="fPiB25N_Uv9yYRan34zL-9">
          <mxGeometry relative="1" as="geometry" />
        </mxCell>
        <mxCell id="fPiB25N_Uv9yYRan34zL-7" value="Enter hours" style="shape=parallelogram;perimeter=parallelogramPerimeter;whiteSpace=wrap;html=1;fixedSize=1;" vertex="1" parent="1">
          <mxGeometry x="365" y="460" width="120" height="60" as="geometry" />
        </mxCell>
        <mxCell id="fPiB25N_Uv9yYRan34zL-12" value="" style="edgeStyle=orthogonalEdgeStyle;rounded=0;orthogonalLoop=1;jettySize=auto;html=1;" edge="1" parent="1" source="fPiB25N_Uv9yYRan34zL-9" target="fPiB25N_Uv9yYRan34zL-11">
          <mxGeometry relative="1" as="geometry" />
        </mxCell>
        <mxCell id="fPiB25N_Uv9yYRan34zL-9" value="Input hours" style="shape=parallelogram;perimeter=parallelogramPerimeter;whiteSpace=wrap;html=1;fixedSize=1;" vertex="1" parent="1">
          <mxGeometry x="365" y="600" width="120" height="60" as="geometry" />
        </mxCell>
        <mxCell id="fPiB25N_Uv9yYRan34zL-14" value="" style="edgeStyle=orthogonalEdgeStyle;rounded=0;orthogonalLoop=1;jettySize=auto;html=1;" edge="1" parent="1" source="fPiB25N_Uv9yYRan34zL-11" target="fPiB25N_Uv9yYRan34zL-13">
          <mxGeometry relative="1" as="geometry" />
        </mxCell>
        <mxCell id="fPiB25N_Uv9yYRan34zL-11" value="pay = wage * hours" style="whiteSpace=wrap;html=1;" vertex="1" parent="1">
          <mxGeometry x="365" y="740" width="120" height="60" as="geometry" />
        </mxCell>
        <mxCell id="fPiB25N_Uv9yYRan34zL-16" value="" style="edgeStyle=orthogonalEdgeStyle;rounded=0;orthogonalLoop=1;jettySize=auto;html=1;" edge="1" parent="1" source="fPiB25N_Uv9yYRan34zL-13" target="fPiB25N_Uv9yYRan34zL-15">
          <mxGeometry relative="1" as="geometry" />
        </mxCell>
        <mxCell id="fPiB25N_Uv9yYRan34zL-13" value="Display pay" style="whiteSpace=wrap;html=1;" vertex="1" parent="1">
          <mxGeometry x="365" y="880" width="120" height="60" as="geometry" />
        </mxCell>
        <mxCell id="fPiB25N_Uv9yYRan34zL-15" value="End" style="ellipse;whiteSpace=wrap;html=1;" vertex="1" parent="1">
          <mxGeometry x="385" y="1010" width="80" height="80" as="geometry" />
        </mxCell>
      </root>
    </mxGraphModel>
  </diagram>
  <diagram id="jfwm6yyyHNyflnY-Xaof" name="Question7">
    <mxGraphModel dx="1050" dy="621" grid="1" gridSize="10" guides="1" tooltips="1" connect="1" arrows="1" fold="1" page="1" pageScale="1" pageWidth="850" pageHeight="1100" math="0" shadow="0">
      <root>
        <mxCell id="0" />
        <mxCell id="1" parent="0" />
        <mxCell id="RDfsgSNnrC5oJ63dCQ8m-1" value="&lt;h1 style=&quot;margin-top: 0px;&quot;&gt;Specifications&lt;/h1&gt;&lt;div&gt;&lt;br&gt;&lt;/div&gt;&lt;div&gt;Input&lt;/div&gt;&lt;div&gt;Loss&lt;/div&gt;&lt;div&gt;&lt;br&gt;&lt;/div&gt;&lt;div&gt;Output&lt;/div&gt;&lt;div&gt;total&lt;/div&gt;&lt;div&gt;&lt;br&gt;&lt;/div&gt;&lt;div&gt;Processing&lt;/div&gt;&lt;div&gt;total = went - Loss&lt;/div&gt;&lt;div&gt;&lt;br&gt;&lt;/div&gt;&lt;div&gt;&lt;br&gt;&lt;/div&gt;&lt;div&gt;Initlization&lt;/div&gt;&lt;div&gt;went = 500&lt;/div&gt;" style="text;html=1;whiteSpace=wrap;overflow=hidden;rounded=0;" vertex="1" parent="1">
          <mxGeometry width="180" height="240" as="geometry" />
        </mxCell>
        <mxCell id="RDfsgSNnrC5oJ63dCQ8m-4" value="" style="edgeStyle=orthogonalEdgeStyle;rounded=0;orthogonalLoop=1;jettySize=auto;html=1;" edge="1" parent="1" source="RDfsgSNnrC5oJ63dCQ8m-2" target="RDfsgSNnrC5oJ63dCQ8m-3">
          <mxGeometry relative="1" as="geometry" />
        </mxCell>
        <mxCell id="RDfsgSNnrC5oJ63dCQ8m-2" value="Start" style="ellipse;whiteSpace=wrap;html=1;" vertex="1" parent="1">
          <mxGeometry x="365" width="120" height="80" as="geometry" />
        </mxCell>
        <mxCell id="RDfsgSNnrC5oJ63dCQ8m-6" value="" style="edgeStyle=orthogonalEdgeStyle;rounded=0;orthogonalLoop=1;jettySize=auto;html=1;" edge="1" parent="1" source="RDfsgSNnrC5oJ63dCQ8m-3" target="RDfsgSNnrC5oJ63dCQ8m-5">
          <mxGeometry relative="1" as="geometry" />
        </mxCell>
        <mxCell id="RDfsgSNnrC5oJ63dCQ8m-3" value="Enter Loss" style="shape=parallelogram;perimeter=parallelogramPerimeter;whiteSpace=wrap;html=1;fixedSize=1;" vertex="1" parent="1">
          <mxGeometry x="365" y="200" width="120" height="60" as="geometry" />
        </mxCell>
        <mxCell id="RDfsgSNnrC5oJ63dCQ8m-8" value="" style="edgeStyle=orthogonalEdgeStyle;rounded=0;orthogonalLoop=1;jettySize=auto;html=1;" edge="1" parent="1" source="RDfsgSNnrC5oJ63dCQ8m-5" target="RDfsgSNnrC5oJ63dCQ8m-7">
          <mxGeometry relative="1" as="geometry" />
        </mxCell>
        <mxCell id="RDfsgSNnrC5oJ63dCQ8m-5" value="Input Loss" style="shape=parallelogram;perimeter=parallelogramPerimeter;whiteSpace=wrap;html=1;fixedSize=1;" vertex="1" parent="1">
          <mxGeometry x="365" y="310" width="120" height="60" as="geometry" />
        </mxCell>
        <mxCell id="RDfsgSNnrC5oJ63dCQ8m-15" value="" style="edgeStyle=orthogonalEdgeStyle;rounded=0;orthogonalLoop=1;jettySize=auto;html=1;" edge="1" parent="1" source="RDfsgSNnrC5oJ63dCQ8m-7" target="RDfsgSNnrC5oJ63dCQ8m-14">
          <mxGeometry relative="1" as="geometry" />
        </mxCell>
        <mxCell id="RDfsgSNnrC5oJ63dCQ8m-7" value="total = went - Loss" style="whiteSpace=wrap;html=1;" vertex="1" parent="1">
          <mxGeometry x="365" y="450" width="120" height="60" as="geometry" />
        </mxCell>
        <mxCell id="RDfsgSNnrC5oJ63dCQ8m-11" style="edgeStyle=orthogonalEdgeStyle;rounded=0;orthogonalLoop=1;jettySize=auto;html=1;exitX=0.5;exitY=1;exitDx=0;exitDy=0;entryX=0.5;entryY=0;entryDx=0;entryDy=0;" edge="1" parent="1" source="RDfsgSNnrC5oJ63dCQ8m-9" target="RDfsgSNnrC5oJ63dCQ8m-10">
          <mxGeometry relative="1" as="geometry" />
        </mxCell>
        <mxCell id="RDfsgSNnrC5oJ63dCQ8m-9" value="Start" style="ellipse;whiteSpace=wrap;html=1;" vertex="1" parent="1">
          <mxGeometry x="365" width="120" height="80" as="geometry" />
        </mxCell>
        <mxCell id="RDfsgSNnrC5oJ63dCQ8m-12" style="edgeStyle=orthogonalEdgeStyle;rounded=0;orthogonalLoop=1;jettySize=auto;html=1;exitX=0.5;exitY=1;exitDx=0;exitDy=0;entryX=0.5;entryY=0;entryDx=0;entryDy=0;" edge="1" parent="1" source="RDfsgSNnrC5oJ63dCQ8m-10" target="RDfsgSNnrC5oJ63dCQ8m-3">
          <mxGeometry relative="1" as="geometry" />
        </mxCell>
        <mxCell id="RDfsgSNnrC5oJ63dCQ8m-10" value="went = 500" style="whiteSpace=wrap;html=1;" vertex="1" parent="1">
          <mxGeometry x="365" y="100" width="120" height="60" as="geometry" />
        </mxCell>
        <mxCell id="RDfsgSNnrC5oJ63dCQ8m-13" value="End" style="ellipse;whiteSpace=wrap;html=1;" vertex="1" parent="1">
          <mxGeometry x="365" y="690" width="120" height="80" as="geometry" />
        </mxCell>
        <mxCell id="RDfsgSNnrC5oJ63dCQ8m-16" style="edgeStyle=orthogonalEdgeStyle;rounded=0;orthogonalLoop=1;jettySize=auto;html=1;exitX=0.5;exitY=1;exitDx=0;exitDy=0;entryX=0.5;entryY=0;entryDx=0;entryDy=0;" edge="1" parent="1" source="RDfsgSNnrC5oJ63dCQ8m-14" target="RDfsgSNnrC5oJ63dCQ8m-13">
          <mxGeometry relative="1" as="geometry" />
        </mxCell>
        <mxCell id="RDfsgSNnrC5oJ63dCQ8m-14" value="Display total" style="whiteSpace=wrap;html=1;" vertex="1" parent="1">
          <mxGeometry x="365" y="590" width="120" height="60" as="geometry" />
        </mxCell>
      </root>
    </mxGraphModel>
  </diagram>
  <diagram id="iiqqNswQJ3R8Vt_Qu1rf" name="Quesiton8">
    <mxGraphModel dx="1050" dy="621" grid="1" gridSize="10" guides="1" tooltips="1" connect="1" arrows="1" fold="1" page="1" pageScale="1" pageWidth="850" pageHeight="1100" math="0" shadow="0">
      <root>
        <mxCell id="0" />
        <mxCell id="1" parent="0" />
        <mxCell id="axoeh4fk7pcvYLVCX3F8-1" value="&lt;h1 style=&quot;margin-top: 0px;&quot;&gt;Specifications&lt;/h1&gt;&lt;div&gt;&lt;br&gt;&lt;/div&gt;&lt;div&gt;Input&lt;/div&gt;&lt;div&gt;wage&lt;/div&gt;&lt;div&gt;&lt;br&gt;&lt;/div&gt;&lt;div&gt;Output&lt;/div&gt;&lt;div&gt;newPay&lt;/div&gt;&lt;div&gt;&lt;br&gt;&lt;/div&gt;&lt;div&gt;Initlization&lt;/div&gt;&lt;div&gt;raise = 0.25&lt;/div&gt;&lt;div&gt;&lt;br&gt;&lt;/div&gt;&lt;div&gt;Processing&lt;/div&gt;&lt;div&gt;newPay = raise + wage&lt;/div&gt;" style="text;html=1;whiteSpace=wrap;overflow=hidden;rounded=0;" vertex="1" parent="1">
          <mxGeometry width="180" height="280" as="geometry" />
        </mxCell>
        <mxCell id="axoeh4fk7pcvYLVCX3F8-4" value="" style="edgeStyle=orthogonalEdgeStyle;rounded=0;orthogonalLoop=1;jettySize=auto;html=1;" edge="1" parent="1" source="axoeh4fk7pcvYLVCX3F8-2" target="axoeh4fk7pcvYLVCX3F8-3">
          <mxGeometry relative="1" as="geometry" />
        </mxCell>
        <mxCell id="axoeh4fk7pcvYLVCX3F8-2" value="Start" style="ellipse;whiteSpace=wrap;html=1;" vertex="1" parent="1">
          <mxGeometry x="370" width="120" height="80" as="geometry" />
        </mxCell>
        <mxCell id="axoeh4fk7pcvYLVCX3F8-6" value="" style="edgeStyle=orthogonalEdgeStyle;rounded=0;orthogonalLoop=1;jettySize=auto;html=1;" edge="1" parent="1" source="axoeh4fk7pcvYLVCX3F8-3" target="axoeh4fk7pcvYLVCX3F8-5">
          <mxGeometry relative="1" as="geometry" />
        </mxCell>
        <mxCell id="axoeh4fk7pcvYLVCX3F8-3" value="Enter wage" style="shape=parallelogram;perimeter=parallelogramPerimeter;whiteSpace=wrap;html=1;fixedSize=1;" vertex="1" parent="1">
          <mxGeometry x="370" y="170" width="120" height="60" as="geometry" />
        </mxCell>
        <mxCell id="axoeh4fk7pcvYLVCX3F8-8" value="" style="edgeStyle=orthogonalEdgeStyle;rounded=0;orthogonalLoop=1;jettySize=auto;html=1;" edge="1" parent="1" source="axoeh4fk7pcvYLVCX3F8-5" target="axoeh4fk7pcvYLVCX3F8-7">
          <mxGeometry relative="1" as="geometry" />
        </mxCell>
        <mxCell id="axoeh4fk7pcvYLVCX3F8-5" value="Input wage" style="shape=parallelogram;perimeter=parallelogramPerimeter;whiteSpace=wrap;html=1;fixedSize=1;" vertex="1" parent="1">
          <mxGeometry x="370" y="310" width="120" height="60" as="geometry" />
        </mxCell>
        <mxCell id="axoeh4fk7pcvYLVCX3F8-10" value="" style="edgeStyle=orthogonalEdgeStyle;rounded=0;orthogonalLoop=1;jettySize=auto;html=1;" edge="1" parent="1" source="axoeh4fk7pcvYLVCX3F8-7" target="axoeh4fk7pcvYLVCX3F8-9">
          <mxGeometry relative="1" as="geometry" />
        </mxCell>
        <mxCell id="axoeh4fk7pcvYLVCX3F8-7" value="newPay = raise + wage" style="whiteSpace=wrap;html=1;" vertex="1" parent="1">
          <mxGeometry x="370" y="450" width="120" height="60" as="geometry" />
        </mxCell>
        <mxCell id="axoeh4fk7pcvYLVCX3F8-12" value="" style="edgeStyle=orthogonalEdgeStyle;rounded=0;orthogonalLoop=1;jettySize=auto;html=1;" edge="1" parent="1" source="axoeh4fk7pcvYLVCX3F8-9" target="axoeh4fk7pcvYLVCX3F8-11">
          <mxGeometry relative="1" as="geometry" />
        </mxCell>
        <mxCell id="axoeh4fk7pcvYLVCX3F8-9" value="Display newPay" style="whiteSpace=wrap;html=1;" vertex="1" parent="1">
          <mxGeometry x="370" y="590" width="120" height="60" as="geometry" />
        </mxCell>
        <mxCell id="axoeh4fk7pcvYLVCX3F8-11" value="End" style="ellipse;whiteSpace=wrap;html=1;" vertex="1" parent="1">
          <mxGeometry x="390" y="720" width="80" height="80" as="geometry" />
        </mxCell>
      </root>
    </mxGraphModel>
  </diagram>
  <diagram id="CP3CvRM4HineVFp0rdwm" name="Question9">
    <mxGraphModel dx="1050" dy="621" grid="1" gridSize="10" guides="1" tooltips="1" connect="1" arrows="1" fold="1" page="1" pageScale="1" pageWidth="850" pageHeight="1100" math="0" shadow="0">
      <root>
        <mxCell id="0" />
        <mxCell id="1" parent="0" />
        <mxCell id="RPzDBO0nfEOHgY6gh26z-1" value="&lt;h1 style=&quot;margin-top: 0px;&quot;&gt;Specifications&lt;/h1&gt;&lt;div&gt;&lt;br&gt;&lt;/div&gt;&lt;div&gt;Input&lt;/div&gt;&lt;div&gt;num1&lt;/div&gt;&lt;div&gt;num2&lt;/div&gt;&lt;div&gt;num3&lt;/div&gt;&lt;div&gt;&lt;br&gt;&lt;/div&gt;&lt;div&gt;Output&lt;/div&gt;&lt;div&gt;total&lt;/div&gt;&lt;div&gt;&lt;br&gt;&lt;/div&gt;&lt;div&gt;Processing&lt;/div&gt;&lt;div&gt;total = num1 + num2 + num3&amp;nbsp;&lt;/div&gt;" style="text;html=1;whiteSpace=wrap;overflow=hidden;rounded=0;" vertex="1" parent="1">
          <mxGeometry width="180" height="320" as="geometry" />
        </mxCell>
        <mxCell id="RPzDBO0nfEOHgY6gh26z-4" value="" style="edgeStyle=orthogonalEdgeStyle;rounded=0;orthogonalLoop=1;jettySize=auto;html=1;" edge="1" parent="1" source="RPzDBO0nfEOHgY6gh26z-2" target="RPzDBO0nfEOHgY6gh26z-3">
          <mxGeometry relative="1" as="geometry" />
        </mxCell>
        <mxCell id="RPzDBO0nfEOHgY6gh26z-2" value="Start" style="ellipse;whiteSpace=wrap;html=1;" vertex="1" parent="1">
          <mxGeometry x="370" width="120" height="80" as="geometry" />
        </mxCell>
        <mxCell id="RPzDBO0nfEOHgY6gh26z-6" value="" style="edgeStyle=orthogonalEdgeStyle;rounded=0;orthogonalLoop=1;jettySize=auto;html=1;" edge="1" parent="1" source="RPzDBO0nfEOHgY6gh26z-3" target="RPzDBO0nfEOHgY6gh26z-5">
          <mxGeometry relative="1" as="geometry" />
        </mxCell>
        <mxCell id="RPzDBO0nfEOHgY6gh26z-3" value="Enter num1" style="shape=parallelogram;perimeter=parallelogramPerimeter;whiteSpace=wrap;html=1;fixedSize=1;" vertex="1" parent="1">
          <mxGeometry x="370" y="170" width="120" height="60" as="geometry" />
        </mxCell>
        <mxCell id="RPzDBO0nfEOHgY6gh26z-8" value="" style="edgeStyle=orthogonalEdgeStyle;rounded=0;orthogonalLoop=1;jettySize=auto;html=1;" edge="1" parent="1" source="RPzDBO0nfEOHgY6gh26z-5" target="RPzDBO0nfEOHgY6gh26z-7">
          <mxGeometry relative="1" as="geometry" />
        </mxCell>
        <mxCell id="RPzDBO0nfEOHgY6gh26z-5" value="Input num1" style="shape=parallelogram;perimeter=parallelogramPerimeter;whiteSpace=wrap;html=1;fixedSize=1;" vertex="1" parent="1">
          <mxGeometry x="370" y="310" width="120" height="60" as="geometry" />
        </mxCell>
        <mxCell id="RPzDBO0nfEOHgY6gh26z-10" value="" style="edgeStyle=orthogonalEdgeStyle;rounded=0;orthogonalLoop=1;jettySize=auto;html=1;" edge="1" parent="1" source="RPzDBO0nfEOHgY6gh26z-7" target="RPzDBO0nfEOHgY6gh26z-9">
          <mxGeometry relative="1" as="geometry" />
        </mxCell>
        <mxCell id="RPzDBO0nfEOHgY6gh26z-7" value="Enter num2" style="shape=parallelogram;perimeter=parallelogramPerimeter;whiteSpace=wrap;html=1;fixedSize=1;" vertex="1" parent="1">
          <mxGeometry x="370" y="450" width="120" height="60" as="geometry" />
        </mxCell>
        <mxCell id="RPzDBO0nfEOHgY6gh26z-12" value="" style="edgeStyle=orthogonalEdgeStyle;rounded=0;orthogonalLoop=1;jettySize=auto;html=1;" edge="1" parent="1" source="RPzDBO0nfEOHgY6gh26z-9" target="RPzDBO0nfEOHgY6gh26z-11">
          <mxGeometry relative="1" as="geometry" />
        </mxCell>
        <mxCell id="RPzDBO0nfEOHgY6gh26z-9" value="Input num2" style="shape=parallelogram;perimeter=parallelogramPerimeter;whiteSpace=wrap;html=1;fixedSize=1;" vertex="1" parent="1">
          <mxGeometry x="370" y="590" width="120" height="60" as="geometry" />
        </mxCell>
        <mxCell id="RPzDBO0nfEOHgY6gh26z-14" value="" style="edgeStyle=orthogonalEdgeStyle;rounded=0;orthogonalLoop=1;jettySize=auto;html=1;" edge="1" parent="1" source="RPzDBO0nfEOHgY6gh26z-11" target="RPzDBO0nfEOHgY6gh26z-13">
          <mxGeometry relative="1" as="geometry" />
        </mxCell>
        <mxCell id="RPzDBO0nfEOHgY6gh26z-11" value="Enter num3" style="shape=parallelogram;perimeter=parallelogramPerimeter;whiteSpace=wrap;html=1;fixedSize=1;" vertex="1" parent="1">
          <mxGeometry x="370" y="730" width="120" height="60" as="geometry" />
        </mxCell>
        <mxCell id="RPzDBO0nfEOHgY6gh26z-16" value="" style="edgeStyle=orthogonalEdgeStyle;rounded=0;orthogonalLoop=1;jettySize=auto;html=1;" edge="1" parent="1" source="RPzDBO0nfEOHgY6gh26z-13" target="RPzDBO0nfEOHgY6gh26z-15">
          <mxGeometry relative="1" as="geometry" />
        </mxCell>
        <mxCell id="RPzDBO0nfEOHgY6gh26z-13" value="Input num3" style="shape=parallelogram;perimeter=parallelogramPerimeter;whiteSpace=wrap;html=1;fixedSize=1;" vertex="1" parent="1">
          <mxGeometry x="370" y="870" width="120" height="60" as="geometry" />
        </mxCell>
        <mxCell id="RPzDBO0nfEOHgY6gh26z-18" value="" style="edgeStyle=orthogonalEdgeStyle;rounded=0;orthogonalLoop=1;jettySize=auto;html=1;" edge="1" parent="1" source="RPzDBO0nfEOHgY6gh26z-15" target="RPzDBO0nfEOHgY6gh26z-17">
          <mxGeometry relative="1" as="geometry" />
        </mxCell>
        <mxCell id="RPzDBO0nfEOHgY6gh26z-15" value="total = num1 + num2 + num3" style="whiteSpace=wrap;html=1;" vertex="1" parent="1">
          <mxGeometry x="370" y="1010" width="120" height="60" as="geometry" />
        </mxCell>
        <mxCell id="RPzDBO0nfEOHgY6gh26z-20" value="" style="edgeStyle=orthogonalEdgeStyle;rounded=0;orthogonalLoop=1;jettySize=auto;html=1;" edge="1" parent="1" source="RPzDBO0nfEOHgY6gh26z-17" target="RPzDBO0nfEOHgY6gh26z-19">
          <mxGeometry relative="1" as="geometry" />
        </mxCell>
        <mxCell id="RPzDBO0nfEOHgY6gh26z-17" value="Display total" style="whiteSpace=wrap;html=1;" vertex="1" parent="1">
          <mxGeometry x="370" y="1150" width="120" height="60" as="geometry" />
        </mxCell>
        <mxCell id="RPzDBO0nfEOHgY6gh26z-19" value="End" style="ellipse;whiteSpace=wrap;html=1;" vertex="1" parent="1">
          <mxGeometry x="390" y="1280" width="80" height="80" as="geometry" />
        </mxCell>
      </root>
    </mxGraphModel>
  </diagram>
  <diagram id="7dyaQJ7lweXAFkIQCInn" name="Question10">
    <mxGraphModel dx="1050" dy="621" grid="1" gridSize="10" guides="1" tooltips="1" connect="1" arrows="1" fold="1" page="1" pageScale="1" pageWidth="850" pageHeight="1100" math="0" shadow="0">
      <root>
        <mxCell id="0" />
        <mxCell id="1" parent="0" />
        <mxCell id="HenkMubmubvNKMBM_byg-1" value="&lt;h1 style=&quot;margin-top: 0px;&quot;&gt;Specifications&lt;/h1&gt;&lt;div&gt;&lt;br&gt;&lt;/div&gt;&lt;div&gt;Input&lt;/div&gt;&lt;div&gt;money&lt;/div&gt;&lt;div&gt;&lt;br&gt;&lt;/div&gt;&lt;div&gt;Output&lt;/div&gt;&lt;div&gt;wonMoney&lt;/div&gt;&lt;div&gt;total&lt;/div&gt;&lt;div&gt;&lt;br&gt;&lt;/div&gt;&lt;div&gt;Processing&lt;/div&gt;&lt;div&gt;total = money * 3&lt;/div&gt;&lt;div&gt;wonMoney = total - money&lt;/div&gt;" style="text;html=1;whiteSpace=wrap;overflow=hidden;rounded=0;" vertex="1" parent="1">
          <mxGeometry width="180" height="320" as="geometry" />
        </mxCell>
        <mxCell id="HenkMubmubvNKMBM_byg-4" value="" style="edgeStyle=orthogonalEdgeStyle;rounded=0;orthogonalLoop=1;jettySize=auto;html=1;" edge="1" parent="1" source="HenkMubmubvNKMBM_byg-2" target="HenkMubmubvNKMBM_byg-3">
          <mxGeometry relative="1" as="geometry" />
        </mxCell>
        <mxCell id="HenkMubmubvNKMBM_byg-2" value="Start" style="ellipse;whiteSpace=wrap;html=1;" vertex="1" parent="1">
          <mxGeometry x="365" width="120" height="80" as="geometry" />
        </mxCell>
        <mxCell id="HenkMubmubvNKMBM_byg-6" value="" style="edgeStyle=orthogonalEdgeStyle;rounded=0;orthogonalLoop=1;jettySize=auto;html=1;" edge="1" parent="1" source="HenkMubmubvNKMBM_byg-3" target="HenkMubmubvNKMBM_byg-5">
          <mxGeometry relative="1" as="geometry" />
        </mxCell>
        <mxCell id="HenkMubmubvNKMBM_byg-3" value="Enter money" style="shape=parallelogram;perimeter=parallelogramPerimeter;whiteSpace=wrap;html=1;fixedSize=1;" vertex="1" parent="1">
          <mxGeometry x="365" y="170" width="120" height="60" as="geometry" />
        </mxCell>
        <mxCell id="HenkMubmubvNKMBM_byg-8" value="" style="edgeStyle=orthogonalEdgeStyle;rounded=0;orthogonalLoop=1;jettySize=auto;html=1;" edge="1" parent="1" source="HenkMubmubvNKMBM_byg-5" target="HenkMubmubvNKMBM_byg-7">
          <mxGeometry relative="1" as="geometry" />
        </mxCell>
        <mxCell id="HenkMubmubvNKMBM_byg-5" value="Input money" style="shape=parallelogram;perimeter=parallelogramPerimeter;whiteSpace=wrap;html=1;fixedSize=1;" vertex="1" parent="1">
          <mxGeometry x="365" y="310" width="120" height="60" as="geometry" />
        </mxCell>
        <mxCell id="HenkMubmubvNKMBM_byg-10" value="" style="edgeStyle=orthogonalEdgeStyle;rounded=0;orthogonalLoop=1;jettySize=auto;html=1;" edge="1" parent="1" source="HenkMubmubvNKMBM_byg-7" target="HenkMubmubvNKMBM_byg-9">
          <mxGeometry relative="1" as="geometry" />
        </mxCell>
        <mxCell id="HenkMubmubvNKMBM_byg-7" value="total = money * 3" style="whiteSpace=wrap;html=1;" vertex="1" parent="1">
          <mxGeometry x="365" y="450" width="120" height="60" as="geometry" />
        </mxCell>
        <mxCell id="HenkMubmubvNKMBM_byg-12" value="" style="edgeStyle=orthogonalEdgeStyle;rounded=0;orthogonalLoop=1;jettySize=auto;html=1;" edge="1" parent="1" source="HenkMubmubvNKMBM_byg-9" target="HenkMubmubvNKMBM_byg-11">
          <mxGeometry relative="1" as="geometry" />
        </mxCell>
        <mxCell id="HenkMubmubvNKMBM_byg-9" value="wonMoney = total - money" style="whiteSpace=wrap;html=1;" vertex="1" parent="1">
          <mxGeometry x="365" y="590" width="120" height="60" as="geometry" />
        </mxCell>
        <mxCell id="HenkMubmubvNKMBM_byg-14" value="" style="edgeStyle=orthogonalEdgeStyle;rounded=0;orthogonalLoop=1;jettySize=auto;html=1;" edge="1" parent="1" source="HenkMubmubvNKMBM_byg-11" target="HenkMubmubvNKMBM_byg-13">
          <mxGeometry relative="1" as="geometry" />
        </mxCell>
        <mxCell id="HenkMubmubvNKMBM_byg-11" value="Display wonMoney" style="whiteSpace=wrap;html=1;" vertex="1" parent="1">
          <mxGeometry x="365" y="730" width="120" height="60" as="geometry" />
        </mxCell>
        <mxCell id="HenkMubmubvNKMBM_byg-13" value="End" style="ellipse;whiteSpace=wrap;html=1;" vertex="1" parent="1">
          <mxGeometry x="385" y="860" width="80" height="80" as="geometry" />
        </mxCell>
      </root>
    </mxGraphModel>
  </diagram>
  <diagram id="ZZeLWo6ppxY3miQrFdtB" name="Question11">
    <mxGraphModel dx="1050" dy="621" grid="1" gridSize="10" guides="1" tooltips="1" connect="1" arrows="1" fold="1" page="1" pageScale="1" pageWidth="850" pageHeight="1100" math="0" shadow="0">
      <root>
        <mxCell id="0" />
        <mxCell id="1" parent="0" />
        <mxCell id="4CI7AgHEYHPZVFvSOuo--1" value="&lt;h1 style=&quot;margin-top: 0px;&quot;&gt;Specifications&lt;/h1&gt;&lt;div&gt;&lt;br&gt;&lt;/div&gt;&lt;div&gt;Input&lt;/div&gt;&lt;div&gt;meat&lt;/div&gt;&lt;div&gt;veggie&lt;/div&gt;&lt;div&gt;dessert&lt;/div&gt;&lt;div&gt;&lt;br&gt;&lt;/div&gt;&lt;div&gt;Output&lt;/div&gt;&lt;div&gt;itemCost&lt;/div&gt;&lt;div&gt;totalCost&lt;/div&gt;&lt;div&gt;&lt;br&gt;&lt;/div&gt;&lt;div&gt;Initlization&lt;/div&gt;&lt;div&gt;saleTax = 0.7&lt;/div&gt;&lt;div&gt;&lt;br&gt;&lt;/div&gt;&lt;div&gt;Processing&lt;/div&gt;&lt;div&gt;drate = itemCost * saleTax&amp;nbsp;&lt;/div&gt;&lt;div&gt;totalCost = meat + veggie + dessert + drate&lt;/div&gt;&lt;div&gt;itemCost = meat + veggie + desert&amp;nbsp;&lt;/div&gt;" style="text;html=1;whiteSpace=wrap;overflow=hidden;rounded=0;" vertex="1" parent="1">
          <mxGeometry width="180" height="390" as="geometry" />
        </mxCell>
        <mxCell id="4CI7AgHEYHPZVFvSOuo--4" value="" style="edgeStyle=orthogonalEdgeStyle;rounded=0;orthogonalLoop=1;jettySize=auto;html=1;" edge="1" parent="1" source="4CI7AgHEYHPZVFvSOuo--2" target="4CI7AgHEYHPZVFvSOuo--3">
          <mxGeometry relative="1" as="geometry" />
        </mxCell>
        <mxCell id="4CI7AgHEYHPZVFvSOuo--2" value="Start" style="ellipse;whiteSpace=wrap;html=1;" vertex="1" parent="1">
          <mxGeometry x="390" width="120" height="80" as="geometry" />
        </mxCell>
        <mxCell id="4CI7AgHEYHPZVFvSOuo--6" value="" style="edgeStyle=orthogonalEdgeStyle;rounded=0;orthogonalLoop=1;jettySize=auto;html=1;" edge="1" parent="1" source="4CI7AgHEYHPZVFvSOuo--3" target="4CI7AgHEYHPZVFvSOuo--5">
          <mxGeometry relative="1" as="geometry" />
        </mxCell>
        <mxCell id="4CI7AgHEYHPZVFvSOuo--3" value="Enter meat" style="shape=parallelogram;perimeter=parallelogramPerimeter;whiteSpace=wrap;html=1;fixedSize=1;" vertex="1" parent="1">
          <mxGeometry x="390" y="170" width="120" height="60" as="geometry" />
        </mxCell>
        <mxCell id="4CI7AgHEYHPZVFvSOuo--8" value="" style="edgeStyle=orthogonalEdgeStyle;rounded=0;orthogonalLoop=1;jettySize=auto;html=1;" edge="1" parent="1" source="4CI7AgHEYHPZVFvSOuo--5" target="4CI7AgHEYHPZVFvSOuo--7">
          <mxGeometry relative="1" as="geometry" />
        </mxCell>
        <mxCell id="4CI7AgHEYHPZVFvSOuo--5" value="Input meat" style="shape=parallelogram;perimeter=parallelogramPerimeter;whiteSpace=wrap;html=1;fixedSize=1;" vertex="1" parent="1">
          <mxGeometry x="390" y="310" width="120" height="60" as="geometry" />
        </mxCell>
        <mxCell id="4CI7AgHEYHPZVFvSOuo--10" value="" style="edgeStyle=orthogonalEdgeStyle;rounded=0;orthogonalLoop=1;jettySize=auto;html=1;" edge="1" parent="1" source="4CI7AgHEYHPZVFvSOuo--7" target="4CI7AgHEYHPZVFvSOuo--9">
          <mxGeometry relative="1" as="geometry" />
        </mxCell>
        <mxCell id="4CI7AgHEYHPZVFvSOuo--7" value="Enter veggie" style="shape=parallelogram;perimeter=parallelogramPerimeter;whiteSpace=wrap;html=1;fixedSize=1;" vertex="1" parent="1">
          <mxGeometry x="390" y="450" width="120" height="60" as="geometry" />
        </mxCell>
        <mxCell id="4CI7AgHEYHPZVFvSOuo--12" value="" style="edgeStyle=orthogonalEdgeStyle;rounded=0;orthogonalLoop=1;jettySize=auto;html=1;" edge="1" parent="1" source="4CI7AgHEYHPZVFvSOuo--9" target="4CI7AgHEYHPZVFvSOuo--11">
          <mxGeometry relative="1" as="geometry" />
        </mxCell>
        <mxCell id="4CI7AgHEYHPZVFvSOuo--9" value="Input veggie" style="shape=parallelogram;perimeter=parallelogramPerimeter;whiteSpace=wrap;html=1;fixedSize=1;" vertex="1" parent="1">
          <mxGeometry x="390" y="590" width="120" height="60" as="geometry" />
        </mxCell>
        <mxCell id="4CI7AgHEYHPZVFvSOuo--14" value="" style="edgeStyle=orthogonalEdgeStyle;rounded=0;orthogonalLoop=1;jettySize=auto;html=1;" edge="1" parent="1" source="4CI7AgHEYHPZVFvSOuo--11" target="4CI7AgHEYHPZVFvSOuo--13">
          <mxGeometry relative="1" as="geometry" />
        </mxCell>
        <mxCell id="4CI7AgHEYHPZVFvSOuo--11" value="Enter dessert" style="shape=parallelogram;perimeter=parallelogramPerimeter;whiteSpace=wrap;html=1;fixedSize=1;" vertex="1" parent="1">
          <mxGeometry x="390" y="730" width="120" height="60" as="geometry" />
        </mxCell>
        <mxCell id="4CI7AgHEYHPZVFvSOuo--16" value="" style="edgeStyle=orthogonalEdgeStyle;rounded=0;orthogonalLoop=1;jettySize=auto;html=1;" edge="1" parent="1" source="4CI7AgHEYHPZVFvSOuo--13" target="4CI7AgHEYHPZVFvSOuo--15">
          <mxGeometry relative="1" as="geometry" />
        </mxCell>
        <mxCell id="4CI7AgHEYHPZVFvSOuo--13" value="Input dessert" style="shape=parallelogram;perimeter=parallelogramPerimeter;whiteSpace=wrap;html=1;fixedSize=1;" vertex="1" parent="1">
          <mxGeometry x="390" y="870" width="120" height="60" as="geometry" />
        </mxCell>
        <mxCell id="4CI7AgHEYHPZVFvSOuo--18" value="" style="edgeStyle=orthogonalEdgeStyle;rounded=0;orthogonalLoop=1;jettySize=auto;html=1;" edge="1" parent="1" source="4CI7AgHEYHPZVFvSOuo--15" target="4CI7AgHEYHPZVFvSOuo--17">
          <mxGeometry relative="1" as="geometry" />
        </mxCell>
        <mxCell id="4CI7AgHEYHPZVFvSOuo--15" value="itemCost = meat + veggie + dessert" style="whiteSpace=wrap;html=1;" vertex="1" parent="1">
          <mxGeometry x="390" y="1010" width="120" height="60" as="geometry" />
        </mxCell>
        <mxCell id="4CI7AgHEYHPZVFvSOuo--20" value="" style="edgeStyle=orthogonalEdgeStyle;rounded=0;orthogonalLoop=1;jettySize=auto;html=1;" edge="1" parent="1" source="4CI7AgHEYHPZVFvSOuo--17" target="4CI7AgHEYHPZVFvSOuo--19">
          <mxGeometry relative="1" as="geometry" />
        </mxCell>
        <mxCell id="4CI7AgHEYHPZVFvSOuo--17" value="drate = itemCost * saleTax" style="whiteSpace=wrap;html=1;" vertex="1" parent="1">
          <mxGeometry x="390" y="1150" width="120" height="60" as="geometry" />
        </mxCell>
        <mxCell id="4CI7AgHEYHPZVFvSOuo--22" value="" style="edgeStyle=orthogonalEdgeStyle;rounded=0;orthogonalLoop=1;jettySize=auto;html=1;" edge="1" parent="1" source="4CI7AgHEYHPZVFvSOuo--19" target="4CI7AgHEYHPZVFvSOuo--21">
          <mxGeometry relative="1" as="geometry" />
        </mxCell>
        <mxCell id="4CI7AgHEYHPZVFvSOuo--19" value="totalCost = meat + veggie + desert + drate" style="whiteSpace=wrap;html=1;" vertex="1" parent="1">
          <mxGeometry x="390" y="1290" width="120" height="60" as="geometry" />
        </mxCell>
        <mxCell id="4CI7AgHEYHPZVFvSOuo--24" value="" style="edgeStyle=orthogonalEdgeStyle;rounded=0;orthogonalLoop=1;jettySize=auto;html=1;" edge="1" parent="1" source="4CI7AgHEYHPZVFvSOuo--21" target="4CI7AgHEYHPZVFvSOuo--23">
          <mxGeometry relative="1" as="geometry" />
        </mxCell>
        <mxCell id="4CI7AgHEYHPZVFvSOuo--21" value="Display totalCost" style="whiteSpace=wrap;html=1;" vertex="1" parent="1">
          <mxGeometry x="390" y="1430" width="120" height="60" as="geometry" />
        </mxCell>
        <mxCell id="4CI7AgHEYHPZVFvSOuo--23" value="End" style="ellipse;whiteSpace=wrap;html=1;" vertex="1" parent="1">
          <mxGeometry x="410" y="1560" width="80" height="80" as="geometry" />
        </mxCell>
      </root>
    </mxGraphModel>
  </diagram>
</mxfile>
